<?xml version="1.0" encoding="utf-8"?>
<!-- Generator: Adobe Illustrator 25.2.1, SVG Export Plug-In . SVG Version: 6.00 Build 0)  -->
<svg version="1.1" id="Layer_1" xmlns="http://www.w3.org/2000/svg" xmlns:xlink="http://www.w3.org/1999/xlink" x="0px" y="0px"
	 viewBox="0 0 290.7 83.1" style="enable-background:new 0 0 290.7 83.1;" xml:space="preserve">
<style type="text/css">
	.st0{fill:#FFFFFF;}
</style>
<g>
	<path class="st0" d="M43.8,13.1l13.3-9.5c0.2-0.1,0.2-0.6,0.2-0.6H37.7l3.2,9.6L24.3,32.9V9.2L30,3.6c0.2-0.1,0.2-0.6,0.2-0.6H1.9
		c0,0,0,0.5,0.2,0.6l5.7,5.6v45.1l-5.7,5.6c-0.2,0.1-0.2,0.7-0.2,0.7h28.3c0,0,0-0.6-0.2-0.7l-5.7-5.6V36.7l2.1-2.5l16.1,21.2
		l24.2,16.2l1-0.3L37.6,20.6L43.8,13.1z"/>
	<path class="st0" d="M68,47.6c-0.2,0.1-0.2,0.5-0.2,0.5h22.3c0,0,0-0.5-0.2-0.5l-4.5-4.4V7.6l4.5-4.4c0.2-0.1,0.2-0.5,0.2-0.5H67.8
		c0,0,0,0.4,0.2,0.5l4.5,4.4v35.6L68,47.6z"/>
	<path class="st0" d="M98.7,47.6c-0.2,0.1-0.2,0.5-0.2,0.5h35.6l4.5-16.4c0,0-0.4,0-0.5,0.2L121,46.3h-0.5c-1-0.1-4.3,0.3-4.3-3.4
		V7.6l4.5-4.4c0.2-0.1,0.2-0.5,0.2-0.5H98.5c0,0,0,0.4,0.2,0.5l4.5,4.4v35.6L98.7,47.6z"/>
	<path class="st0" d="M143.3,47.6c-0.2,0.1-0.2,0.5-0.2,0.5h35.6l4.5-16.4c0,0-0.4,0-0.5,0.2l-17.2,14.4H165c-1-0.1-4.3,0.3-4.3-3.4
		V7.6l4.5-4.4c0.2-0.1,0.2-0.5,0.2-0.5h-22.3c0,0,0,0.4,0.2,0.5l4.5,4.4v35.6L143.3,47.6z"/>
	<path class="st0" d="M188,47.6c-0.2,0.1-0.2,0.5-0.2,0.5h35.6l4.5-16.4c0,0-0.4,0-0.5,0.2l-17.5,14.4h-1.6
		c-1.4-0.1-2.9-0.6-2.9-3.1V26.2h4.5l6.3,7.3c0.1,0.3,0.5,0.3,0.5,0.3V17c0,0-0.5,0-0.5,0.3l-6.3,7.2h-4.5V4.5h6.1l10.3,11
		c0.1,0.1,0.5,0.2,0.5,0.2L221.2,3V2.7h-33.4c0,0,0,0.4,0.2,0.5l4.5,4.4v35.6L188,47.6z"/>
	<path class="st0" d="M287.8,59.7L282,54V8l5.8-5.7c0.3-0.1,0.3-0.6,0.3-0.6h-28.4c-29.9,0-29.9,31.8,0,31.8h2.4l-16.8,3L222.4,70
		l1,0.3L251.3,57l13.8-21.5V54l-5.9,5.7c-0.3,0.1-0.3,0.7-0.3,0.7h29C288.1,60.4,288.1,59.8,287.8,59.7z M265.2,31.1h-1.8
		c-12.3,0-12.3-27.1,0-27.1h1.8V31.1z"/>
	<path class="st0" d="M96.9,79.4c-1.3-1.9-2.7-4.9-3.2-6.8c2.4-1,4.7-3.4,4.7-6.8c0-6.7-5.3-7.9-12-7.9c-3.3,0-6.7,0.2-8.2,0.3v0.7
		c0.9,0,1.3,0.7,1.3,1.6v18c0,1.4-0.5,1.8-1.3,1.8V81h8.5v-0.7c-0.9,0-1.3-0.4-1.3-1.8V74c0.5,0,1,0.1,1.6,0.1c0.6,0,1.2,0,1.6-0.1
		c0.5,2.3,1.4,5.4,2.3,7h7.6v-0.7C97.6,80.3,97.3,80,96.9,79.4z M87.3,69.6c-0.6,0-1.3,0-1.9-0.1v-6.9c0.4,0,1.1-0.1,1.8-0.1
		c3.6,0,5.2,1.1,5.2,3.5C92.3,68.5,90.7,69.6,87.3,69.6z"/>
	<path class="st0" d="M121.6,76.3h-7.5v-4.9h6.7c0.7,0,1.1,0.3,1.1,0.9h0.8v-6.6h-0.8c0,0.7-0.4,1-1.1,1h-6.7v-4h7.4
		c1.1,0,1.5,0.2,2.1,1.2l0.7-0.2l-1.1-5.8c-0.3,0.1-1.4,0.2-1.9,0.2h-14.3v0.7c0.8,0,1.3,0.7,1.3,1.7v18.1c0,1.1-0.4,1.7-1.3,1.7V81
		H121c0.6,0,1.6,0.2,2.2,0.4l1.3-6.2l-0.8-0.3C123.2,76,122.8,76.3,121.6,76.3z"/>
	<path class="st0" d="M152.9,78.8l-5.9-17.5c-0.3-0.8-0.4-1.2-0.4-1.6c0-0.6,0.3-0.8,0.8-0.8v-0.7h-8.7v0.7c0.5,0,0.8,0.3,0.8,0.8
		c0,0.3-0.2,0.9-0.3,1.2l-6.1,17.9c-0.5,1.3-0.7,1.5-1.5,1.5V81h8.5v-0.7c-0.7,0-1.1-0.3-1.1-0.9c0-0.2,0.1-0.5,0.2-0.8l0.2-0.6
		c1,0.3,2.3,0.5,3.5,0.5c1.3,0,2.6-0.2,3.5-0.5l0.2,0.6c0.1,0.2,0.2,0.6,0.2,0.8c0,0.6-0.4,1-1.3,1V81h8.9v-0.7
		C153.7,80.3,153.4,80.1,152.9,78.8z M143.1,73.9c-0.8,0-1.9-0.2-2.5-0.4l2.4-9h0l2.4,9C144.8,73.8,143.9,73.9,143.1,73.9z"/>
	<path class="st0" d="M170.3,57.8c-3.4,0-6.3,0.2-8,0.3v0.7c0.8,0,1.3,0.7,1.3,1.6v18c0,1.4-0.4,1.9-1.3,1.9V81
		c1.4,0.2,4.6,0.3,7.4,0.3c9.7,0,13.5-4.8,13.5-12C183.2,62.5,179.1,57.8,170.3,57.8z M171.3,76.5c-0.6,0-1.4,0-1.8-0.1V62.6
		c0.5,0,1.3-0.1,1.8-0.1c3.2,0,5.8,2.2,5.8,6.8C177.1,74.1,174.9,76.5,171.3,76.5z"/>
	<path class="st0" d="M202.8,67.2c-3.7-1.6-4.7-2.3-4.7-3.1s0.9-1.8,3.4-1.8c2.3,0,3.2,0.4,4,0.9c0.7,0.5,1,1,1.2,1.6l0.9-0.2
		l-0.7-6.7c-0.2,0.1-0.6,0.2-1.2,0.2c-0.9,0-2.9-0.6-4.5-0.6c-6.1,0-9.3,3.1-9.3,7.3c0,2.9,1.9,4.9,5.7,6.6c4.5,2,5.2,2.6,5.2,3.5
		c0,1.2-1,2.1-3.8,2.1c-2.9,0-4.3-0.7-5.3-1.7c-0.6-0.6-0.8-1.2-1-1.9l-1.1,0.4l1.2,7.5c0.2-0.1,0.7-0.2,1.2-0.2c1,0,3.9,0.8,6,0.8
		c6.2,0,8.8-3.1,8.8-7.4C208.8,70.5,206.1,68.6,202.8,67.2z"/>
</g>
</svg>
