<?xml version="1.0" encoding="utf-8"?>
<!-- Generator: Adobe Illustrator 25.2.1, SVG Export Plug-In . SVG Version: 6.00 Build 0)  -->
<svg version="1.1" id="Layer_1" xmlns="http://www.w3.org/2000/svg" xmlns:xlink="http://www.w3.org/1999/xlink" x="0px" y="0px"
	 viewBox="0 0 200 200" style="enable-background:new 0 0 200 200;" xml:space="preserve">
<style type="text/css">
	.st0{fill:#E6E6E6;}
</style>
<g>
	<g>
		<path d="M33.3,180.9v-45.1H25c-13.8,0-25-11.2-25-25V27.4c0-13.8,11.2-25,25-25h125c13.8,0,25,11.2,25,25v8.3h-16.7v-8.3
			c0-4.6-3.7-8.3-8.3-8.3H25c-4.6,0-8.3,3.7-8.3,8.3v83.3c0,4.6,3.7,8.3,8.3,8.3h25v21.5l21.5-21.5h11.8v16.7h-4.9L33.3,180.9z"/>
	</g>
	<g>
		<path d="M175,197.6l-36.8-36.8h-21.5c-13.8,0-25-11.2-25-25V69.1c0-13.8,11.2-25,25-25H175c13.8,0,25,11.2,25,25v66.7
			c0,13.8-11.2,25-25,25V197.6z M116.7,60.8c-4.6,0-8.3,3.7-8.3,8.3v66.7c0,4.6,3.7,8.3,8.3,8.3h28.5l13.2,13.2v-13.2H175
			c4.6,0,8.3-3.7,8.3-8.3V69.1c0-4.6-3.7-8.3-8.3-8.3H116.7z"/>
	</g>
</g>
</svg>
