<?xml version="1.0" encoding="utf-8"?>
<!-- Generator: Adobe Illustrator 25.2.1, SVG Export Plug-In . SVG Version: 6.00 Build 0)  -->
<svg version="1.1" id="Layer_1" xmlns="http://www.w3.org/2000/svg" xmlns:xlink="http://www.w3.org/1999/xlink" x="0px" y="0px"
	 viewBox="0 0 200 200" style="enable-background:new 0 0 200 200;" xml:space="preserve">
<style type="text/css">
	.st0{fill:#E6E6E6;}
</style>
<path d="M142.4,112l-8.9,8.9l-6.1-6.1c9.4-12.1,15-27.3,15-43.7c0-39.4-32-71.4-71.4-71.4s-71.4,32-71.4,71.4
	c0,39.4,32,71.4,71.4,71.4c16.5,0,31.7-5.6,43.7-15l6.1,6.1l-8.9,8.9l57.2,57.2l30.5-30.5L142.4,112z M71,124.7
	c-29.5,0-53.5-24-53.5-53.5c0-29.5,24-53.5,53.5-53.5s53.5,24,53.5,53.5C124.5,100.7,100.5,124.7,71,124.7z M137.2,142.5l5.2-5.2
	l32,32l-5.2,5.2L137.2,142.5z"/>
</svg>
