<?xml version="1.0" encoding="utf-8"?>
<!-- Generator: Adobe Illustrator 25.2.1, SVG Export Plug-In . SVG Version: 6.00 Build 0)  -->
<svg version="1.1" id="Layer_1" xmlns="http://www.w3.org/2000/svg" xmlns:xlink="http://www.w3.org/1999/xlink" x="0px" y="0px"
	 viewBox="0 0 50 50" style="enable-background:new 0 0 50 50;" xml:space="preserve">
<style type="text/css">
	.st0{fill-rule:evenodd;clip-rule:evenodd;fill:#F0F0F0;}
</style>
<path class="st0" d="M24.4,0.5c-6.1,0-6.9,0-9.5,0.2c-2.6,0.1-4.4,0.5-6,1.1C7.4,2.5,6,3.3,4.7,4.7S2.5,7.4,1.8,9
	c-0.6,1.6-1,3.3-1.2,6C0.6,17.6,0.6,18.3,0.6,25s0,7.4,0.2,10.1c0.1,2.6,0.5,4.4,1.2,6c0.6,1.6,1.5,2.9,2.8,4.3
	C6,46.7,7.4,47.5,9,48.2c1.6,0.6,3.3,1,6,1.2c2.6,0.1,3.4,0.1,10.1,0.1s7.4,0,10.1-0.2c2.6-0.1,4.4-0.5,6-1.2
	c1.6-0.6,2.9-1.5,4.3-2.8s2.2-2.7,2.8-4.3c0.6-1.6,1-3.3,1.2-6c0.1-2.5,0.1-3.4,0.2-9.5v-1.2c0-6.1,0-6.9-0.2-9.5
	c-0.1-2.6-0.5-4.4-1.2-6c-0.6-1.6-1.5-2.9-2.8-4.3C44,3.3,42.6,2.5,41,1.8c-1.6-0.6-3.3-1-6-1.2c-2.5-0.1-3.4-0.1-9.5-0.1H24.4
	L24.4,0.5z M40.9,12c0,1.7-1.3,2.9-2.9,2.9c-1.7,0-2.9-1.3-2.9-2.9s1.3-2.9,2.9-2.9C39.7,9.1,40.9,10.3,40.9,12L40.9,12z M25,33.1
	c-4.5,0-8.1-3.6-8.1-8.1s3.6-8.1,8.1-8.1s8.1,3.6,8.1,8.1S29.5,33.1,25,33.1L25,33.1z M25,12.5c6.9,0,12.5,5.6,12.5,12.5
	S31.9,37.5,25,37.5S12.5,31.9,12.5,25S18.1,12.5,25,12.5L25,12.5z M25,5c6.6,0,7.3,0,9.9,0.1c2.3,0.1,3.7,0.5,4.5,0.9
	c1.2,0.5,2,1,2.8,1.9s1.4,1.7,1.9,2.8c0.3,0.9,0.7,2.2,0.9,4.5c0.1,2.5,0.1,3.3,0.1,9.9s0,7.3-0.1,9.9c-0.1,2.3-0.5,3.7-0.9,4.5
	c-0.5,1.2-1,2-1.9,2.8s-1.7,1.4-2.8,1.9c-0.9,0.3-2.2,0.7-4.5,0.9C32.3,45,31.6,45,25,45s-7.3,0-9.9-0.1c-2.3-0.1-3.7-0.5-4.5-0.9
	c-1.2-0.5-2-1-2.8-1.9s-1.4-1.7-1.9-2.8c-0.3-0.9-0.7-2.2-0.9-4.5C5,32.3,5,31.6,5,25s0-7.3,0.1-9.9c0.1-2.3,0.5-3.7,0.9-4.5
	c0.5-1.2,1-2,1.9-2.8c0.9-0.9,1.7-1.4,2.8-1.9c0.9-0.3,2.2-0.7,4.5-0.9C17.7,5,18.4,5,25,5z"/>
</svg>
