<?xml version="1.0" encoding="utf-8"?>
<!-- Generator: Adobe Illustrator 25.2.1, SVG Export Plug-In . SVG Version: 6.00 Build 0)  -->
<svg version="1.1" id="Layer_1" xmlns="http://www.w3.org/2000/svg" xmlns:xlink="http://www.w3.org/1999/xlink" x="0px" y="0px"
	 viewBox="0 0 50 50" style="enable-background:new 0 0 50 50;" xml:space="preserve">
<style type="text/css">
	.st0{fill-rule:evenodd;clip-rule:evenodd;fill:#F0F0F0;}
</style>
<path class="st0" d="M44.9,14.8c0.6,14.4-10.1,30.5-29.2,30.5c-5.8,0-11.2-1.7-15.7-4.6c5.4,0.6,10.9-0.9,15.2-4.2
	c-4.5-0.1-8.3-3-9.6-7.1c1.6,0.3,3.2,0.2,4.6-0.2C5.3,28.2,1.9,23.7,2,19c1.4,0.8,3,1.2,4.6,1.3C2,17.2,0.7,11.2,3.4,6.6
	C8.5,12.8,16,16.9,24.5,17.3c-1.5-6.4,3.4-12.6,10-12.6c2.9,0,5.6,1.2,7.5,3.2c2.3-0.5,4.5-1.3,6.5-2.5c-0.8,2.4-2.4,4.4-4.5,5.7
	c2.1-0.2,4.1-0.8,5.9-1.6C48.6,11.6,46.9,13.4,44.9,14.8z"/>
</svg>
