<?xml version="1.0" encoding="utf-8"?>
<!-- Generator: Adobe Illustrator 25.2.1, SVG Export Plug-In . SVG Version: 6.00 Build 0)  -->
<svg version="1.1" id="Layer_1" xmlns="http://www.w3.org/2000/svg" xmlns:xlink="http://www.w3.org/1999/xlink" x="0px" y="0px"
	 viewBox="0 0 200 200" style="enable-background:new 0 0 200 200;" xml:space="preserve">
<g>
	<path d="M128.6,109.6H71.1c-37.1,0-67.2,30.1-67.2,67.2V196h192.1v-19.2C195.9,139.7,165.8,109.6,128.6,109.6z M23,176.8
		c0-26.4,21.6-48.1,48.1-48.1h57.7c26.4,0,48.1,21.6,48.1,48.1H23z"/>
	<path d="M99.9,100c26.4,0,48.1-21.6,48.1-48.1S126.2,4,99.9,4S51.8,25.6,51.8,52.1S73.5,100,99.9,100z M99.9,23.2
		c15.8,0,28.8,12.9,28.8,28.8s-12.9,28.8-28.8,28.8S71.1,67.9,71.1,52S84,23.2,99.9,23.2z"/>
</g>
</svg>
